<svg xmlns="http://www.w3.org/2000/svg" width="16" height="16" viewBox="0 0 16 16">
  <path d="M5.757 2a3 3 0 0 1 2.122.879L8 3l.121-.121A3 3 0 0 1 10.243 2H15a1 1 0 0 1 1 1v10a1 1 0 0 1-1 1h-4.528a2 2 0 0 0-.894.211l-1.13.565a1 1 0 0 1-.895 0l-1.13-.565A2 2 0 0 0 5.527 14H1a1 1 0 0 1-1-1V3a1 1 0 0 1 1-1h4.757ZM8.5 3.914v9.718l.63-.315A3 3 0 0 1 10.473 13H15V3h-4.757a2 2 0 0 0-1.415.586l-.328.328Zm-1 9.718V3.914l-.328-.328A2 2 0 0 0 5.757 3H1v10h4.528a3 3 0 0 1 1.342.317l.63.315Z" fill="#fff"/>
</svg>
