<svg xmlns="http://www.w3.org/2000/svg" xmlns:xlink="http://www.w3.org/1999/xlink" width="16" height="16" viewBox="0 0 16 16">
  <defs>
    <path id="luiicons_clipboard-a" d="M9,0 C9.55228475,0 10,0.44771525 10,1 L13.0056152,1 C13.5279541,1 14,1.53571429 14,2.07142857 L14,14.9285714 C14,15.4642857 13.5484619,16 13.0355225,16 L2.99987793,16 C2.48400879,16 2,15.5012207 2,14.9285714 L2,2.07142857 C2,1.53571429 2.46936035,1 2.98718262,1 L6,1 C6,0.44771525 6.44771525,0 7,0 L9,0 Z M11,3 L5,3 C4.44771525,3 4,2.55228475 4,2 L3,2 L3,15 L13,15 L13,2 L12,2 C12,2.55228475 11.5522847,3 11,3 Z M10,11 L10,12 L5,12 L5,11 L10,11 Z M9,9 L9,10 L5,10 L5,9 L9,9 Z M11,7 L11,8 L5,8 L5,7 L11,7 Z M10,5 L10,6 L5,6 L5,5 L10,5 Z" fill="#fff"/>
  </defs>
  <use xlink:href="#luiicons_clipboard-a"/>
</svg>
